# xmcd
#
# Track frame offsets:
#	150
#	15630
#	33017
#	47610
#	59815
#	78685
#	96315
#	112495
#	122770
#	139337
#	154695
#	174990
#	191175
#	210035
#
# Disc length: 2985 seconds
#
# Revision: 1
# Processed by: cddbd v1.5.1PL2 Copyright (c) Steve Scherf et al.
# Submitted via: audiograbber 1.83.01
#
DISCID=c40ba70e
DTITLE=Tom Jones - Engelbert Humperdinck - The Love Album
DYEAR=1900
DGENRE=
TTITLE0=Tom Jones - You're my world
TTITLE1=Engelbert Humperdinck - Love is all
TTITLE2=Tom Jones - All I ever need you
TTITLE3=Engelbert Humperdinck - Close to you (they long be)
TTITLE4=Tom Jones - My way
TTITLE5=Engelbert Humperdinck - Killing me softly with his song
TTITLE6=Tom Jones - You'll never walk alone
TTITLE7=Engelbert Humperdinck - Raindrops keep falling on my head
TTITLE8=Tom Jones - To all the girls I love before
TTITLE9=Engelbert Humperdinck - Can't smile without you
TTITLE10=Tom Jones - If I sing you a love song
TTITLE11=Engelbert Humperdinck - Leaving on a jet plane
TTITLE12=Tom jones - Love is in the air
TTITLE13=Engelbert Humperdinck - My cherie amour
EXTD=
EXTT0=
EXTT1=
EXTT2=
EXTT3=
EXTT4=
EXTT5=
EXTT6=
EXTT7=
EXTT8=
EXTT9=
EXTT10=
EXTT11=
EXTT12=
EXTT13=
PLAYORDER=
